<svg width="40" height="40" viewBox="0 0 40 40" fill="none" xmlns="http://www.w3.org/2000/svg">
<rect x="1" y="1" width="38" height="38" rx="7" fill="white" stroke="#A9DCC9" stroke-width="2"/>
<path fill-rule="evenodd" clip-rule="evenodd" d="M22 7C22 5.89543 21.1046 5 20 5C18.8954 5 18 5.89543 18 7V18H7C5.89543 18 5 18.8954 5 20C5 21.1046 5.89543 22 7 22H18V32.5556C18 33.6601 18.8954 34.5556 20 34.5556C21.1046 34.5556 22 33.6601 22 32.5556V22H32.5556C33.6601 22 34.5556 21.1046 34.5556 20C34.5556 18.8954 33.6601 18 32.5556 18H22V7Z" fill="#A9DCC9"/>
</svg>
