<svg width="13" height="8" viewBox="0 0 13 8" fill="none" xmlns="http://www.w3.org/2000/svg">
<path fill-rule="evenodd" clip-rule="evenodd" d="M12.7152 0.820031C12.892 0.607859 12.8633 0.292582 12.6511 0.11584C12.4389 -0.0609008 12.1236 -0.0321782 11.9469 0.179994L6.49455 6.72535L0.879637 0.174617C0.699926 -0.035046 0.384276 -0.0593268 0.174613 0.120384C-0.0350495 0.300095 -0.0593303 0.615745 0.120381 0.825408L6.1142 7.81819C6.12502 7.83129 6.1366 7.84393 6.14893 7.85606C6.19086 7.8975 6.23863 7.93014 6.28975 7.95379C6.35862 7.98575 6.4328 8.00098 6.50653 7.99998C6.57827 7.99908 6.65008 7.98282 6.71663 7.95078C6.76742 7.92642 6.81472 7.89311 6.85606 7.85109C6.86821 7.83879 6.87961 7.82599 6.89025 7.81275L12.7152 0.820031Z" fill="#D9D9D9"/>
</svg>
